<?xml version="1.0"?>
<svg xmlns="http://www.w3.org/2000/svg" viewBox="0 0 240 64" width="960" height="256" fill="none">
  <title>Procvault — vault lockup</title>
  <g transform="translate(4 8) scale(1.2)">
    <circle cx="20" cy="20" r="18" stroke="#1f1d1a" stroke-width="2" fill="none"></circle>
    <line x1="20.00" y1="3.50" x2="20.00" y2="7.00" stroke="#1f1d1a" stroke-width="2" stroke-linecap="round"></line>
    <line x1="28.25" y1="5.71" x2="27.25" y2="7.44" stroke="#1f1d1a" stroke-width="1.4" stroke-linecap="round"></line>
    <line x1="34.29" y1="11.75" x2="32.56" y2="12.75" stroke="#1f1d1a" stroke-width="1.4" stroke-linecap="round"></line>
    <line x1="36.50" y1="20.00" x2="33.00" y2="20.00" stroke="#1f1d1a" stroke-width="2" stroke-linecap="round"></line>
    <line x1="34.29" y1="28.25" x2="32.56" y2="27.25" stroke="#1f1d1a" stroke-width="1.4" stroke-linecap="round"></line>
    <line x1="28.25" y1="34.29" x2="27.25" y2="32.56" stroke="#1f1d1a" stroke-width="1.4" stroke-linecap="round"></line>
    <line x1="20.00" y1="36.50" x2="20.00" y2="33.00" stroke="#1f1d1a" stroke-width="2" stroke-linecap="round"></line>
    <line x1="11.75" y1="34.29" x2="12.75" y2="32.56" stroke="#1f1d1a" stroke-width="1.4" stroke-linecap="round"></line>
    <line x1="5.71" y1="28.25" x2="7.44" y2="27.25" stroke="#1f1d1a" stroke-width="1.4" stroke-linecap="round"></line>
    <line x1="3.50" y1="20.00" x2="7.00" y2="20.00" stroke="#1f1d1a" stroke-width="2" stroke-linecap="round"></line>
    <line x1="5.71" y1="11.75" x2="7.44" y2="12.75" stroke="#1f1d1a" stroke-width="1.4" stroke-linecap="round"></line>
    <line x1="11.75" y1="5.71" x2="12.75" y2="7.44" stroke="#1f1d1a" stroke-width="1.4" stroke-linecap="round"></line>
    <circle cx="20" cy="20" r="3.2" fill="#5c2ee5"></circle>
  </g>
  <text x="62" y="42" font-family="Geist, &#39;Helvetica Neue&#39;, Arial, sans-serif" font-size="28" font-weight="600" fill="#1f1d1a" letter-spacing="-0.5">Procvault</text>
</svg>